<?xml version="1.0" encoding="UTF-8"?>
<!DOCTYPE svg PUBLIC "-//W3C//DTD SVG 1.1//EN" "http://www.w3.org/Graphics/SVG/1.1/DTD/svg11.dtd">
<!-- Creator: CorelDRAW X7 -->
<svg xmlns="http://www.w3.org/2000/svg" xml:space="preserve" width="4in" height="4in" version="1.1" style="shape-rendering:geometricPrecision; text-rendering:geometricPrecision; image-rendering:optimizeQuality; fill-rule:evenodd; clip-rule:evenodd"
viewBox="0 0 4000 4000"
 xmlns:xlink="http://www.w3.org/1999/xlink">
 <defs>
  <style type="text/css">
   <![CDATA[
    .fil1 {fill:black}
    .fil2 {fill:#373435}
    .fil0 {fill:#511061}
   ]]>
  </style>
 </defs>
 <g id="Layer_x0020_1">
  <metadata id="CorelCorpID_0Corel-Layer"/>
  <g id="_421992992">
   <path class="fil0" d="M1567 2379l0 -541c0,-15 18,-32 33,-32l801 0c15,0 32,17 32,32l0 548c0,120 -101,224 -237,224l-392 0c-131,0 -237,-99 -237,-231zm231 -1021c0,-194 217,-274 344,-151 37,37 61,82 61,151l0 256 -405 0 0 -256zm-194 62l0 194c-132,0 -231,108 -231,242l0 493c0,207 115,371 285,427 120,41 564,41 685,0 52,-18 114,-56 149,-89 79,-77 133,-183 133,-338l0 -493c0,-134 -97,-242 -230,-242 0,-196 21,-379 -95,-515 -158,-187 -442,-187 -599,0 -71,84 -97,171 -97,321z"/>
   <path class="fil1" d="M1903 2125c0,75 -13,187 24,230 58,72 170,35 170,-75 0,-123 26,-256 -105,-256 -48,0 -89,51 -89,101z"/>
   <path class="fil2" d="M1246 2864c-92,-97 -219,-295 -284,-420 -13,-24 -19,-43 -32,-69 -59,-116 -104,-254 -134,-399l-198 0c62,298 181,563 345,810 32,46 150,199 189,239 65,65 119,123 188,181l0 -262c-22,-24 -46,-50 -74,-80z"/>
   <path class="fil2" d="M740 1459l0 -286c0,-52 24,-67 65,-80 45,-15 62,-28 97,-45 273,-142 329,-410 362,-435 12,-13 30,-20 53,-20l3 0 0 -187 -33 0c-187,0 -224,194 -271,276 -24,40 -50,75 -82,105 -151,151 -231,101 -330,218 -23,28 -51,86 -51,135 0,233 -9,433 15,649l194 0c-16,-112 -22,-224 -22,-330z"/>
   <path class="fil2" d="M1507 593l1174 0c54,0 67,26 82,63 11,34 26,69 43,99 52,88 119,168 200,232l0 -271c-32,-47 -51,-95 -77,-157 -30,-74 -116,-153 -216,-153l-1206 0 0 187z"/>
   <path class="fil2" d="M3261 1166c0,248 4,435 -20,623l192 0c22,-205 15,-407 15,-649 0,-90 -73,-178 -155,-213 -41,-17 -71,-30 -101,-45l0 211c26,6 69,22 69,73z"/>
   <path class="fil2" d="M3073 2366c-39,80 -52,114 -101,198 -15,22 -24,39 -39,61 -41,69 -77,116 -127,179 -13,17 -28,36 -45,53 -20,20 -26,35 -45,54 -56,54 -106,104 -153,147l271 0c28,-30 54,-58 73,-80l142 -181c48,-69 82,-127 123,-202 63,-112 91,-181 136,-298 45,-112 75,-217 97,-321l-198 0c-24,99 -56,205 -104,321 -8,24 -17,48 -30,69z"/>
   <path class="fil2" d="M2274 3271c-43,26 -228,134 -272,134 -30,0 -109,-43 -137,-59 -132,-66 -244,-137 -358,-228l0 237c26,15 54,37 95,63 71,45 301,176 370,176l39 0c30,-2 50,-4 91,-19 144,-56 353,-185 474,-280l60 -50 -319 0c-15,9 -28,17 -43,26z"/>
  </g>
 </g>
</svg>
