<svg width="40" height="40" viewBox="0 0 40 40" fill="none" xmlns="http://www.w3.org/2000/svg">
<g clip-path="url(#clip0_48_7)">
<path d="M3.33336 29.1666H7.5C9.34094 29.1666 10.8334 30.659 10.8334 32.5V36.6666C10.8334 38.5076 9.34094 40 7.5 40H3.33336C1.49242 40 0 38.5076 0 36.6666V32.5C0 30.659 1.49242 29.1666 3.33336 29.1666Z" fill="#6C6C6C"/>
<path d="M38.5299 29.7366C37.9799 29.3641 37.3307 29.1655 36.6665 29.1666H32.4999C30.6589 29.1666 29.1665 30.659 29.1665 32.5V36.6666C29.1665 38.5076 30.6589 40 32.4999 40H36.6665C38.5075 40 39.9999 38.5076 39.9999 36.6666V32.5C39.9997 31.3918 39.4488 30.3562 38.5299 29.7366Z" fill="#E74C3C"/>
<path d="M3.33336 14.5834H7.5C9.34094 14.5834 10.8334 16.0758 10.8334 17.9167V22.0834C10.8334 23.9243 9.34094 25.4167 7.5 25.4167H3.33336C1.49242 25.4167 0 23.9243 0 22.0834V17.9167C0 16.0757 1.49242 14.5834 3.33336 14.5834Z" fill="#6C6C6C"/>
<path d="M38.5299 15.1534C37.9799 14.7809 37.3307 14.5823 36.6665 14.5834H32.4999C30.6589 14.5834 29.1665 16.0758 29.1665 17.9167V22.0834C29.1665 23.9243 30.6589 25.4167 32.4999 25.4167H36.6665C38.5074 25.4167 39.9999 23.9243 39.9999 22.0834V17.9167C39.9997 16.8085 39.4488 15.7728 38.5299 15.1534Z" fill="#6C6C6C"/>
<path d="M3.33336 0H7.5C9.34094 0 10.8334 1.49242 10.8334 3.33336V7.5C10.8334 9.34094 9.34094 10.8334 7.5 10.8334H3.33336C1.49242 10.8334 0 9.34094 0 7.5V3.33336C0 1.49242 1.49242 0 3.33336 0Z" fill="#2980B9"/>
<path d="M23.9469 29.7366C23.3969 29.3641 22.7477 29.1655 22.0835 29.1666H17.9169C16.0759 29.1666 14.5835 30.659 14.5835 32.5V36.6666C14.5835 38.5076 16.0759 40 17.9169 40H22.0835C23.9244 40 25.4169 38.5076 25.4169 36.6666V32.5C25.4167 31.3918 24.8658 30.3562 23.9469 29.7366Z" fill="#6C6C6C"/>
<path d="M23.9469 15.1534C23.3969 14.7809 22.7477 14.5823 22.0835 14.5834H17.9169C16.0759 14.5834 14.5835 16.0758 14.5835 17.9167V22.0834C14.5835 23.9243 16.0759 25.4167 17.9169 25.4167H22.0835C23.9244 25.4167 25.4169 23.9243 25.4169 22.0834V17.9167C25.4167 16.8085 24.8658 15.7728 23.9469 15.1534Z" fill="#E67E22"/>
<path d="M23.9469 0.570005C23.3969 0.197504 22.7477 -0.00108926 22.0835 4.49363e-06H17.9169C16.0759 4.49363e-06 14.5835 1.49243 14.5835 3.33336V7.5C14.5835 9.34094 16.0759 10.8334 17.9169 10.8334H22.0835C23.9244 10.8334 25.4169 9.34094 25.4169 7.5V3.33336C25.4167 2.22516 24.8658 1.18946 23.9469 0.570005Z" fill="#6C6C6C"/>
<path d="M39.4299 1.47C38.8104 0.551094 37.7747 0.00015625 36.6665 0H32.4999C30.6589 0 29.1665 1.49242 29.1665 3.33336V7.5C29.1665 9.34094 30.6589 10.8334 32.4999 10.8334H36.6665C38.5075 10.8334 39.9999 9.34094 39.9999 7.5V3.33336C40.001 2.66914 39.8024 2.01992 39.4299 1.47Z" fill="#6C6C6C"/>
</g>
<defs>
<clipPath id="clip0_48_7">
<rect width="40" height="40" fill="white"/>
</clipPath>
</defs>
</svg>
